<mxfile host="app.diagrams.net" modified="2021-11-04T20:33:55.045Z" agent="5.0 (Macintosh; Intel Mac OS X 10_15_6) AppleWebKit/605.1.15 (KHTML, like Gecko) Version/14.0.3 Safari/605.1.15" etag="3w7-0qJy_fJNmvTHvDE8" version="15.6.8" type="github">
  <diagram id="SLM8eWInWbg1Q_QTnl8r" name="Page-1">
    <mxGraphModel dx="1482" dy="854" grid="1" gridSize="10" guides="1" tooltips="1" connect="1" arrows="1" fold="1" page="1" pageScale="1" pageWidth="827" pageHeight="1169" math="0" shadow="0">
      <root>
        <mxCell id="0" />
        <mxCell id="1" parent="0" />
        <mxCell id="VqIzGgsnSenqwi37j4g2-1" value="Actor" style="shape=umlActor;verticalLabelPosition=bottom;verticalAlign=top;html=1;" parent="1" vertex="1">
          <mxGeometry x="115" y="130" width="30" height="60" as="geometry" />
        </mxCell>
        <mxCell id="SJ_pUnnPA7xrW4GAIgzs-2" value="" style="rounded=0;whiteSpace=wrap;html=1;" vertex="1" parent="1">
          <mxGeometry x="120" y="240" width="20" height="380" as="geometry" />
        </mxCell>
        <mxCell id="SJ_pUnnPA7xrW4GAIgzs-8" value="" style="rounded=0;whiteSpace=wrap;html=1;" vertex="1" parent="1">
          <mxGeometry x="280" y="290" width="20" height="60" as="geometry" />
        </mxCell>
        <mxCell id="SJ_pUnnPA7xrW4GAIgzs-10" value="SearchField" style="rounded=0;whiteSpace=wrap;html=1;" vertex="1" parent="1">
          <mxGeometry x="240" y="150" width="120" height="60" as="geometry" />
        </mxCell>
        <mxCell id="SJ_pUnnPA7xrW4GAIgzs-11" value="Search Engine" style="rounded=0;whiteSpace=wrap;html=1;" vertex="1" parent="1">
          <mxGeometry x="450" y="150" width="120" height="60" as="geometry" />
        </mxCell>
        <mxCell id="SJ_pUnnPA7xrW4GAIgzs-12" value="Database" style="rounded=0;whiteSpace=wrap;html=1;" vertex="1" parent="1">
          <mxGeometry x="660" y="150" width="120" height="60" as="geometry" />
        </mxCell>
        <mxCell id="SJ_pUnnPA7xrW4GAIgzs-13" value="PresSearchField" style="text;html=1;align=center;verticalAlign=middle;resizable=0;points=[];autosize=1;strokeColor=none;fillColor=none;" vertex="1" parent="1">
          <mxGeometry x="155" y="270" width="100" height="20" as="geometry" />
        </mxCell>
        <mxCell id="SJ_pUnnPA7xrW4GAIgzs-14" value="" style="endArrow=classic;html=1;rounded=0;" edge="1" parent="1">
          <mxGeometry width="50" height="50" relative="1" as="geometry">
            <mxPoint x="155" y="300" as="sourcePoint" />
            <mxPoint x="265" y="300" as="targetPoint" />
          </mxGeometry>
        </mxCell>
        <mxCell id="SJ_pUnnPA7xrW4GAIgzs-15" value="" style="endArrow=classic;html=1;rounded=0;" edge="1" parent="1">
          <mxGeometry width="50" height="50" relative="1" as="geometry">
            <mxPoint x="60" y="210" as="sourcePoint" />
            <mxPoint x="60.5" y="640" as="targetPoint" />
          </mxGeometry>
        </mxCell>
        <mxCell id="SJ_pUnnPA7xrW4GAIgzs-16" value="Time" style="text;html=1;align=center;verticalAlign=middle;resizable=0;points=[];autosize=1;strokeColor=none;fillColor=none;" vertex="1" parent="1">
          <mxGeometry x="10" y="180" width="40" height="20" as="geometry" />
        </mxCell>
        <mxCell id="SJ_pUnnPA7xrW4GAIgzs-17" value="" style="endArrow=classic;html=1;rounded=0;" edge="1" parent="1">
          <mxGeometry width="50" height="50" relative="1" as="geometry">
            <mxPoint x="320" y="350" as="sourcePoint" />
            <mxPoint x="480" y="350" as="targetPoint" />
          </mxGeometry>
        </mxCell>
        <mxCell id="SJ_pUnnPA7xrW4GAIgzs-18" value="" style="rounded=0;whiteSpace=wrap;html=1;" vertex="1" parent="1">
          <mxGeometry x="500" y="350" width="20" height="250" as="geometry" />
        </mxCell>
        <mxCell id="SJ_pUnnPA7xrW4GAIgzs-19" value="PassCriterias" style="text;html=1;align=center;verticalAlign=middle;resizable=0;points=[];autosize=1;strokeColor=none;fillColor=none;" vertex="1" parent="1">
          <mxGeometry x="350" y="330" width="80" height="20" as="geometry" />
        </mxCell>
        <mxCell id="SJ_pUnnPA7xrW4GAIgzs-20" value="" style="endArrow=classic;html=1;rounded=0;" edge="1" parent="1">
          <mxGeometry width="50" height="50" relative="1" as="geometry">
            <mxPoint x="530" y="390" as="sourcePoint" />
            <mxPoint x="720" y="390" as="targetPoint" />
          </mxGeometry>
        </mxCell>
        <mxCell id="SJ_pUnnPA7xrW4GAIgzs-21" value="" style="rounded=0;whiteSpace=wrap;html=1;" vertex="1" parent="1">
          <mxGeometry x="730" y="370" width="20" height="180" as="geometry" />
        </mxCell>
        <mxCell id="SJ_pUnnPA7xrW4GAIgzs-22" value="FindSearchResults" style="text;html=1;align=center;verticalAlign=middle;resizable=0;points=[];autosize=1;strokeColor=none;fillColor=none;" vertex="1" parent="1">
          <mxGeometry x="560" y="360" width="110" height="20" as="geometry" />
        </mxCell>
        <mxCell id="SJ_pUnnPA7xrW4GAIgzs-23" value="" style="endArrow=classic;html=1;rounded=0;" edge="1" parent="1">
          <mxGeometry width="50" height="50" relative="1" as="geometry">
            <mxPoint x="722.5" y="520" as="sourcePoint" />
            <mxPoint x="527.5" y="520" as="targetPoint" />
          </mxGeometry>
        </mxCell>
        <mxCell id="SJ_pUnnPA7xrW4GAIgzs-24" value="Pass back searchResults" style="text;html=1;align=center;verticalAlign=middle;resizable=0;points=[];autosize=1;strokeColor=none;fillColor=none;" vertex="1" parent="1">
          <mxGeometry x="550" y="480" width="150" height="20" as="geometry" />
        </mxCell>
        <mxCell id="SJ_pUnnPA7xrW4GAIgzs-25" value="" style="endArrow=classic;html=1;rounded=0;" edge="1" parent="1">
          <mxGeometry width="50" height="50" relative="1" as="geometry">
            <mxPoint x="500" y="560" as="sourcePoint" />
            <mxPoint x="160" y="560" as="targetPoint" />
          </mxGeometry>
        </mxCell>
        <mxCell id="SJ_pUnnPA7xrW4GAIgzs-26" value="Organizes searchResults" style="text;html=1;align=center;verticalAlign=middle;resizable=0;points=[];autosize=1;strokeColor=none;fillColor=none;" vertex="1" parent="1">
          <mxGeometry x="250" y="530" width="150" height="20" as="geometry" />
        </mxCell>
        <mxCell id="SJ_pUnnPA7xrW4GAIgzs-27" value="" style="endArrow=none;html=1;rounded=0;dashed=1;" edge="1" parent="1">
          <mxGeometry width="50" height="50" relative="1" as="geometry">
            <mxPoint x="740" y="640" as="sourcePoint" />
            <mxPoint x="740" y="220" as="targetPoint" />
          </mxGeometry>
        </mxCell>
        <mxCell id="SJ_pUnnPA7xrW4GAIgzs-28" value="" style="endArrow=none;html=1;rounded=0;dashed=1;" edge="1" parent="1">
          <mxGeometry width="50" height="50" relative="1" as="geometry">
            <mxPoint x="509.5" y="640" as="sourcePoint" />
            <mxPoint x="509.5" y="220" as="targetPoint" />
          </mxGeometry>
        </mxCell>
        <mxCell id="SJ_pUnnPA7xrW4GAIgzs-29" value="" style="endArrow=none;html=1;rounded=0;dashed=1;" edge="1" parent="1">
          <mxGeometry width="50" height="50" relative="1" as="geometry">
            <mxPoint x="289.5" y="640" as="sourcePoint" />
            <mxPoint x="289.5" y="220" as="targetPoint" />
          </mxGeometry>
        </mxCell>
        <mxCell id="SJ_pUnnPA7xrW4GAIgzs-30" value="" style="endArrow=none;html=1;rounded=0;dashed=1;" edge="1" parent="1">
          <mxGeometry width="50" height="50" relative="1" as="geometry">
            <mxPoint x="129.5" y="640" as="sourcePoint" />
            <mxPoint x="129.5" y="220" as="targetPoint" />
          </mxGeometry>
        </mxCell>
      </root>
    </mxGraphModel>
  </diagram>
</mxfile>
